<?xml version="1.0" standalone="no"?>
<!DOCTYPE svg PUBLIC "-//W3C//DTD SVG 20010904//EN"
 "http://www.w3.org/TR/2001/REC-SVG-20010904/DTD/svg10.dtd">
<svg version="1.0" xmlns="http://www.w3.org/2000/svg"
 width="700.000000pt" height="700.000000pt" viewBox="0 0 700.000000 700.000000"
 preserveAspectRatio="xMidYMid meet">
<metadata>
Created by potrace 1.11, written by Peter Selinger 2001-2013
</metadata>
<g transform="translate(0.000000,700.000000) scale(0.100000,-0.100000)"
fill="#000000" stroke="none">
<path d="M4188 6880 c-41 -22 -80 -69 -95 -115 -6 -17 -9 -170 -8 -360 1 -297
3 -333 19 -364 46 -87 134 -126 227 -101 60 16 124 83 134 140 12 69 8 642 -4
686 -31 110 -170 168 -273 114z"/>
<path d="M5539 6871 c-59 -39 -832 -817 -854 -860 -25 -50 -17 -137 17 -189
30 -45 100 -84 153 -84 85 0 91 5 523 436 227 226 422 428 433 448 22 44 25
115 5 162 -45 107 -180 150 -277 87z"/>
<path d="M489 6706 c-2 -2 -26 -7 -53 -10 -167 -23 -305 -115 -369 -246 -60
-124 -62 -146 -62 -610 0 -420 0 -426 24 -494 31 -92 80 -172 140 -233 53 -54
135 -111 188 -132 l32 -13 1 -1690 c0 -1103 4 -1705 10 -1735 28 -122 124
-219 257 -260 53 -16 130 -17 953 -19 492 -1 900 -2 907 -3 8 -1 11 -107 11
-406 0 -334 3 -413 16 -457 38 -131 153 -246 286 -285 49 -14 187 -16 1356
-16 1225 0 1303 1 1355 18 138 46 243 157 277 293 14 56 17 117 16 364 l0 297
345 3 c332 3 349 4 411 27 207 74 353 237 396 443 12 57 14 268 12 1310 l-3
1243 -23 65 c-57 158 -174 289 -312 351 -107 49 -126 51 -382 56 l-248 5 0 37
c1 134 -10 481 -15 506 -44 220 -160 351 -351 398 -103 26 -166 28 -998 28
-629 0 -816 3 -816 12 0 7 9 37 20 67 17 50 18 81 16 355 -3 247 -6 311 -21
360 -53 187 -160 294 -350 351 -57 17 -145 19 -1541 21 -815 2 -1483 1 -1485
-1z m5682 -2731 c139 -24 219 -102 237 -232 4 -32 8 -456 7 -943 0 -720 -3
-892 -14 -925 -32 -92 -107 -167 -206 -204 -43 -16 -75 -19 -206 -18 l-154 2
-1 1160 c0 638 1 1163 2 1166 4 8 280 3 335 -6z"/>
</g>
</svg>
