<?xml version="1.0" encoding="iso-8859-1"?>
<!-- Generator: Adobe Illustrator 19.0.0, SVG Export Plug-In . SVG Version: 6.00 Build 0)  -->
<svg version="1.1" id="Capa_1" xmlns="http://www.w3.org/2000/svg" xmlns:xlink="http://www.w3.org/1999/xlink" x="0px" y="0px"
	 viewBox="0 0 512 512" style="enable-background:new 0 0 512 512;" xml:space="preserve">
<g transform="matrix(1.25 0 0 -1.25 0 45)">
	<path style="fill:#FFCC4D;" d="M198.861-3.824H40.072c-9.557,0-17.317-7.754-17.317-13.534v-261.177
		c0-13.357,11.378-21.112,22.756-21.112h153.35c9.557,0,17.317,7.754,17.317,17.323v261.177
		C216.178-11.577,208.418-3.824,198.861-3.824z"/>
	<path style="fill:#FFAC33;" d="M216.178-78.737v49.11c-4.547,0.098-10.463-3.42-16.934-3.42c-11.617,0-21.333-7.657-24.667-18.17
		c-1.798,0.5-3.686,0.853-5.655,0.853c-5.075,0-9.705-1.832-13.391-4.756c-1.969,17.272-16.453,30.743-34.259,30.743
		c-17.089,0-31.232-12.424-34.054-28.717c-2.685,1.707-5.837,2.731-9.261,2.731c-4.312,0-8.215-1.65-11.252-4.255
		C61.54-41.978,49.16-33.046,34.654-33.046c-4.18,0-8.187,2.066-11.898,4.484v-71.688c3.71-1.357,7.718-2.097,11.898-2.097
		c14.507,0,26.886,8.932,32.051,21.583c3.038-2.617,6.94-4.255,11.252-4.255c5.86,0,11.036,2.924,14.165,7.396
		c6.156-9.637,16.873-16.065,29.15-16.065c11.276,0,21.197,5.473,27.512,13.801c3.163-8.056,10.957-13.801,20.139-13.801
		c8.226,0,15.281,4.642,18.956,11.389c3.448-1.695,7.27-2.719,11.366-2.719C205.717-85.02,211.63-82.649,216.178-78.737z"/>
	<g>
		<g>
			<path style="fill:#FFAC33;" d="M125.156-265.513c-6.28,0-11.378,5.086-11.378,11.378v125.156c0,6.28,5.097,11.378,11.378,11.378
				c6.28,0,11.378-5.097,11.378-11.378v-125.156C136.533-260.427,131.436-265.513,125.156-265.513"/>
			<path style="fill:#FFAC33;" d="M68.267-265.513c-6.28,0-11.378,5.086-11.378,11.378v125.156c0,6.28,5.097,11.378,11.378,11.378
				s11.378-5.097,11.378-11.378v-125.156C79.644-260.427,74.547-265.513,68.267-265.513"/>
		</g>
		<path style="fill:#CCD6DD;" d="M227.556-15.201c0,22.756-11.378,34.133-34.133,34.133H34.133C11.378,18.932,0,7.554,0-15.201
			v-17.841c0-0.831,0.136-1.627,0.239-2.424C0.091-39.869,0-44.772,0-50.37c0-19.137,15.519-34.645,34.645-34.645
			c14.507,0,26.897,8.932,32.063,21.573c3.027-2.617,6.94-4.255,11.252-4.255c5.86,0,11.025,2.936,14.165,7.396
			c6.156-9.626,16.873-16.054,29.15-16.054c11.264,0,21.185,5.461,27.512,13.801c3.163-8.067,10.957-13.801,20.139-13.801
			c8.215,0,15.269,4.631,18.956,11.378c3.436-1.684,7.259-2.719,11.366-2.719c14.348,0,28.308,15.394,28.308,29.741
			c0,2.674,0.114-2.23,0,0c0.045,0.443,0,4.46,0,4.915V-15.201z"/>
		<path style="fill:#FFAC33;" d="M307.2-140.357V-276.89h51.848c0,0,16.418,2.321,16.418,19.649v94.129
			c0,11.378,0,22.756-22.756,22.756L307.2-140.357L307.2-140.357z M409.6-276.378c0-19.137-15.508-34.645-34.657-34.645h-67.22
			c-19.149,0-34.657,15.508-34.657,34.645v135.509c0,19.137,15.508,34.645,34.657,34.645h67.22
			c19.149,0,34.657-15.508,34.657-34.645V-276.378z"/>
		<path style="fill:#FFCC4D;" d="M341.333-345.157c0-11.378-11.378-22.756-22.756-22.756H170.667
			c-11.378,0-22.756,11.378-22.756,22.756v255.75c0,9.557,7.759,17.317,17.329,17.317h158.777c9.557,0,17.317-7.759,17.317-17.317
			V-345.157z"/>
	</g>
	<path style="fill:#FFAC33;" d="M341.333-147.004v49.11c-4.547,0.098-10.463-3.42-16.934-3.42c-11.617,0-21.333-7.657-24.667-18.17
		c-1.798,0.5-3.686,0.853-5.655,0.853c-5.075,0-9.705-1.832-13.391-4.756c-1.969,17.272-16.453,30.743-34.259,30.743
		c-17.089,0-31.232-12.424-34.054-28.717c-2.685,1.707-5.837,2.731-9.261,2.731c-4.312,0-8.215-1.65-11.252-4.255
		c-5.165,12.641-17.544,21.573-32.051,21.573c-4.18,0-8.187,2.066-11.898,4.484v-71.688c3.71-1.357,7.718-2.097,11.898-2.097
		c14.507,0,26.886,8.932,32.051,21.583c3.038-2.617,6.94-4.255,11.252-4.255c5.86,0,11.036,2.924,14.165,7.396
		c6.156-9.637,16.873-16.054,29.15-16.054c11.276,0,21.197,5.461,27.512,13.79c3.163-8.056,10.957-13.79,20.139-13.79
		c8.226,0,15.28,4.631,18.956,11.378c3.448-1.684,7.27-2.719,11.366-2.719C330.872-153.287,336.786-150.916,341.333-147.004z"/>
	<g>
		<path style="fill:#E1E8ED;" d="M352.711-83.468c0,22.756-11.378,34.133-34.133,34.133H159.289
			c-22.756,0-34.133-11.378-34.133-34.133v-17.841c0-0.831,0.136-1.627,0.239-2.424c-0.148-4.403-0.239-9.307-0.239-14.905
			c0-19.137,15.519-34.645,34.645-34.645c14.507,0,26.897,8.932,32.063,21.573c3.027-2.617,6.94-4.255,11.252-4.255
			c5.86,0,11.025,2.936,14.165,7.396c6.156-9.626,16.873-16.054,29.15-16.054c11.264,0,21.185,5.461,27.512,13.801
			c3.163-8.066,10.957-13.801,20.139-13.801c8.215,0,15.269,4.631,18.956,11.389c3.436-1.695,7.259-2.731,11.366-2.731
			c14.348,0,28.308,15.394,28.308,29.741c0,2.674,0.114-2.23,0,0c0.045,0.443,0,4.46,0,4.915L352.711-83.468L352.711-83.468z"/>
		<g>
			<path style="fill:#FFAC33;" d="M182.044-333.779c-6.28,0-11.378,5.086-11.378,11.378v125.156c0,6.292,5.097,11.378,11.378,11.378
				s11.378-5.086,11.378-11.378v-125.156C193.422-328.694,188.325-333.779,182.044-333.779"/>
			<path style="fill:#FFAC33;" d="M295.822-333.779c-6.292,0-11.378,5.086-11.378,11.378v125.156
				c0,6.292,5.086,11.378,11.378,11.378s11.378-5.086,11.378-11.378v-125.156C307.2-328.694,302.114-333.779,295.822-333.779"/>
			<path style="fill:#FFAC33;" d="M238.933-333.779c-6.292,0-11.378,5.086-11.378,11.378v125.156
				c0,6.292,5.086,11.378,11.378,11.378c6.292,0,11.378-5.086,11.378-11.378v-125.156
				C250.311-328.694,245.225-333.779,238.933-333.779"/>
		</g>
		<g>
			<path style="fill:#F4900C;" d="M250.311-26.579c-6.292,0-11.378,5.097-11.378,11.378v34.133c0,6.28,5.086,11.378,11.378,11.378
				s11.378-5.097,11.378-11.378v-34.133C261.689-21.482,256.603-26.579,250.311-26.579"/>
			<path style="fill:#F4900C;" d="M284.444-37.957c-2.913,0-5.825,1.115-8.044,3.334c-4.449,4.449-4.449,11.64,0,16.088
				l45.511,45.511c4.449,4.449,11.64,4.449,16.088,0c4.448-4.449,4.449-11.64,0-16.088l-45.511-45.511
				C290.27-36.842,287.357-37.957,284.444-37.957"/>
		</g>
	</g>
</g>
<g>
</g>
<g>
</g>
<g>
</g>
<g>
</g>
<g>
</g>
<g>
</g>
<g>
</g>
<g>
</g>
<g>
</g>
<g>
</g>
<g>
</g>
<g>
</g>
<g>
</g>
<g>
</g>
<g>
</g>
</svg>
