<?xml version="1.0" encoding="UTF-8" standalone="no"?>
<!-- Created with Inkscape (http://www.inkscape.org/) -->

<svg
   xmlns:dc="http://purl.org/dc/elements/1.1/"
   xmlns:cc="http://creativecommons.org/ns#"
   xmlns:rdf="http://www.w3.org/1999/02/22-rdf-syntax-ns#"
   xmlns:svg="http://www.w3.org/2000/svg"
   xmlns="http://www.w3.org/2000/svg"
   xmlns:sodipodi="http://sodipodi.sourceforge.net/DTD/sodipodi-0.dtd"
   xmlns:inkscape="http://www.inkscape.org/namespaces/inkscape"
   version="1.1"
   id="svg2"
   xml:space="preserve"
   width="617.96399"
   height="899.37201"
   viewBox="0 0 617.96399 899.37201"
   sodipodi:docname="burk.svg"
   inkscape:version="0.92.2 2405546, 2018-03-11"
   inkscape:export-filename="/home/viktor/git/viktor.ml/öl/images/burk.svg.png"
   inkscape:export-xdpi="200"
   inkscape:export-ydpi="200"><metadata
     id="metadata8"><rdf:RDF><cc:Work
         rdf:about=""><dc:format>image/svg+xml</dc:format><dc:type
           rdf:resource="http://purl.org/dc/dcmitype/StillImage" /><dc:title></dc:title></cc:Work></rdf:RDF></metadata><defs
     id="defs6"><clipPath
       clipPathUnits="userSpaceOnUse"
       id="clipPath18"><path
         d="M 0,674.529 H 463.473 V 0 H 0 Z"
         id="path16"
         inkscape:connector-curvature="0" /></clipPath></defs><sodipodi:namedview
     pagecolor="#ffffff"
     bordercolor="#666666"
     borderopacity="1"
     objecttolerance="10"
     gridtolerance="10"
     guidetolerance="10"
     inkscape:pageopacity="0"
     inkscape:pageshadow="2"
     inkscape:window-width="1366"
     inkscape:window-height="712"
     id="namedview4"
     showgrid="false"
     inkscape:zoom="0.74219432"
     inkscape:cx="-9.1632397"
     inkscape:cy="454.28955"
     inkscape:window-x="0"
     inkscape:window-y="19"
     inkscape:window-maximized="1"
     inkscape:current-layer="g14" /><g
     id="g10"
     inkscape:groupmode="layer"
     inkscape:label="burk"
     transform="matrix(1.3333333,0,0,-1.3333333,0,899.372)"><g
       id="g12"><g
         id="g14"
         clip-path="url(#clipPath18)"><g
           id="g20"
           transform="translate(226.3465,495.9224)"
           style="fill:#0000ff"><path
             d="M 0,0 C 44.51,0 84.96,-17.76 114.87,-46.69 L 102.18,-59.61 81.66,-80.52 c -20.94,20.84 -49.8,33.7 -81.67,33.7 -31.77,0 -60.55,-12.79 -81.47,-33.51 l -20.48,20.86 -12.71,12.94 C -84.75,-17.68 -44.38,0 0,0 Z M -148.93,-324.83 H 156.28 V 36.45 h -305.21 z"
             style="fill:#0000ff;stroke:#161619;stroke-width:15;stroke-linecap:round;stroke-linejoin:round;stroke-miterlimit:10;stroke-dasharray:none;stroke-opacity:1"
             id="path22"
             inkscape:connector-curvature="0" /></g><g
           id="g24"
           transform="translate(382.6309,532.3694)"
           style="fill:#0000ff"><path
             d="m 0,0 h -305.212 l 35.553,59.078 h 234.106 z"
             style="fill:#0000ff;stroke:#161619;stroke-width:15;stroke-linecap:round;stroke-linejoin:round;stroke-miterlimit:10;stroke-dasharray:none;stroke-opacity:1"
             id="path26"
             inkscape:connector-curvature="0" /></g><g
           id="g28"
           transform="translate(77.4191,119.2901)"><path
             d="M 0,0 H 305.212 L 269.659,-39.433 H 35.553 Z"
             style="fill:none;stroke:#161619;stroke-width:15;stroke-linecap:round;stroke-linejoin:round;stroke-miterlimit:10;stroke-dasharray:none;stroke-opacity:1"
             id="path30"
             inkscape:connector-curvature="0" /></g><path
           d="M 347.078,591.447 H 112.973 v 14.266 h 234.105 z"
           style="fill:#0000ff;stroke:#161619;stroke-width:15;stroke-linecap:round;stroke-linejoin:round;stroke-miterlimit:10;stroke-dasharray:none;stroke-opacity:1"
           id="path32"
           inkscape:connector-curvature="0" /><path
           d="M 382.631,119.419 H 77.419 v 51.671 h 305.212 z"
           style="fill:#0000ff;stroke:#161619;stroke-width:15;stroke-linecap:round;stroke-linejoin:round;stroke-miterlimit:10;stroke-dasharray:none;stroke-opacity:1"
           id="path34"
           inkscape:connector-curvature="0" /><g
           id="g36"
           transform="translate(323.2765,396.6824)"><path
             d="M 0,0 23.42,24.12 C 17.72,29.7 11.65,34.88 5.25,39.63 L -15.27,18.72 c -20.94,20.84 -49.8,33.7 -81.67,33.7 -31.77,0 -60.55,-12.79 -81.47,-33.51 l -20.48,20.86 c -6.4,-4.74 -12.47,-9.91 -18.18,-15.48 l 23.35,-24.05"
             style="fill:none;stroke:#161619;stroke-width:15;stroke-linecap:round;stroke-linejoin:round;stroke-miterlimit:10;stroke-dasharray:none;stroke-opacity:1"
             id="path38"
             inkscape:connector-curvature="0" /></g><g
           id="g40"
           transform="translate(144.8665,415.5924)"><path
             d="m 0,0 c 20.92,20.72 49.7,33.51 81.47,33.51 31.87,0 60.73,-12.86 81.67,-33.7"
             style="fill:none;stroke:#161619;stroke-width:15;stroke-linecap:round;stroke-linejoin:round;stroke-miterlimit:10;stroke-dasharray:none;stroke-opacity:1"
             id="path42"
             inkscape:connector-curvature="0" /></g><g
           id="g44"
           transform="translate(342.1765,333.2624)"><path
             d="m 0,0 c 0,-63.97 -51.86,-115.84 -115.84,-115.84 -63.97,0 -115.83,51.87 -115.83,115.84 0,23.52 7,45.4 19.05,63.66 4.44,6.75 9.58,13.01 15.31,18.67 20.92,20.72 49.7,33.51 81.47,33.51 31.87,0 60.73,-12.86 81.67,-33.7 5.72,-5.67 10.85,-11.95 15.27,-18.72 C -6.95,45.2 0,23.41 0,0 Z"
             style="fill:none;stroke:#161619;stroke-width:15;stroke-linecap:round;stroke-linejoin:round;stroke-miterlimit:10;stroke-dasharray:none;stroke-opacity:1"
             id="path46"
             inkscape:connector-curvature="0" /></g><g
           id="g48"
           transform="translate(286.4928,263.4331)"><path
             d="m 0,0 h -119.932 c -2.816,0 -5.099,2.283 -5.099,5.098 v 41.34 c 0,2.816 2.283,5.098 5.099,5.098 H 0 c 2.816,0 5.098,-2.282 5.098,-5.098 V 5.098 C 5.098,2.283 2.816,0 0,0 Z"
             style="fill:none;stroke:#161619;stroke-width:15;stroke-linecap:round;stroke-linejoin:round;stroke-miterlimit:10;stroke-dasharray:none;stroke-opacity:1"
             id="path50"
             inkscape:connector-curvature="0" /></g><g
           id="g52"
           transform="translate(254.5172,376.2975)"><path
             d="m 0,0 h -55.981 c -2.34,0 -4.238,1.897 -4.238,4.238 v 28.726 c 0,2.34 1.898,4.237 4.238,4.237 H 0 c 2.34,0 4.238,-1.897 4.238,-4.237 V 4.238 C 4.238,1.897 2.34,0 0,0 Z"
             style="fill:none;stroke:#161619;stroke-width:15;stroke-linecap:round;stroke-linejoin:round;stroke-miterlimit:10;stroke-dasharray:none;stroke-opacity:1"
             id="path54"
             inkscape:connector-curvature="0" /></g><g
           id="g56"
           transform="translate(267.2868,339.096)"><path
             d="m 0,0 h -81.52 c -2.341,0 -4.238,1.897 -4.238,4.238 v 28.726 c 0,2.34 1.897,4.237 4.238,4.237 H 0 c 2.34,0 4.238,-1.897 4.238,-4.237 V 4.238 C 4.238,1.897 2.34,0 0,0 Z"
             style="fill:none;stroke:#161619;stroke-width:15;stroke-linecap:round;stroke-linejoin:round;stroke-miterlimit:10;stroke-dasharray:none;stroke-opacity:1"
             id="path58"
             inkscape:connector-curvature="0" /></g><g
           id="g60"
           transform="translate(267.2868,314.9693)"><path
             d="m 0,0 h -81.52 c -2.341,0 -4.238,1.897 -4.238,4.238 v 15.651 c 0,2.34 1.897,4.238 4.238,4.238 H 0 c 2.34,0 4.238,-1.898 4.238,-4.238 V 4.238 C 4.238,1.897 2.34,0 0,0 Z"
             style="fill:none;stroke:#161619;stroke-width:15;stroke-linecap:round;stroke-linejoin:round;stroke-miterlimit:10;stroke-dasharray:none;stroke-opacity:1"
             id="path62"
             inkscape:connector-curvature="0" /></g><path
           style="fill:#ffcc00;fill-opacity:1;stroke-width:3.8108983"
           d="m 113.864,704.25401 v -22.86539 h 192.45037 192.45036 v 22.86539 22.86539 H 306.31437 113.864 Z"
           id="path64"
           inkscape:connector-curvature="0"
           transform="matrix(0.75000002,0,0,-0.75000002,0,674.52902)" /><path
           style="fill:#c4c8b7;fill-opacity:1;stroke-width:3.8108983"
           d="m 143.02312,766.8587 -10.85531,-13.06301 h 173.96516 173.96516 l -10.17351,13.33815 -10.17349,13.33814 -152.93635,-0.27514 -152.93635,-0.27513 z"
           id="path66"
           inkscape:connector-curvature="0"
           transform="matrix(0.75000002,0,0,-0.75000002,0,674.52902)" /><path
           style="fill:#c4c8b7;fill-opacity:1;stroke-width:3.8108983"
           d="m 178.79235,313.78456 -12.78476,-13.19053 9.17902,-7.57486 c 14.83055,-12.23872 53.14296,-30.24289 77.62312,-36.47746 29.07077,-7.4037 70.52219,-7.38698 99.03611,0.0399 24.56158,6.39748 70.44437,29.09525 79.87076,39.51129 5.50499,6.08295 4.94766,7.61305 -6.98612,19.17973 l -12.96836,12.56942 -22.23669,-13.65819 c -54.97721,-33.76803 -126.97087,-32.53885 -180.8051,3.08696 -8.06523,5.33731 -15.22186,9.70421 -15.90364,9.70421 -0.68177,0 -6.99272,-5.93574 -14.02434,-13.19052 z"
           id="path68"
           inkscape:connector-curvature="0"
           transform="matrix(0.75000002,0,0,-0.75000002,0,674.52902)" /><path
           style="fill:#c4c8b7;fill-opacity:1;stroke-width:3.8108983"
           d=""
           id="path70"
           inkscape:connector-curvature="0"
           transform="matrix(0.75000002,0,0,-0.75000002,0,674.52902)" /><path
           style="fill:#c4c8b7;fill-opacity:1;stroke-width:1.34735608"
           d="m 428.43789,349.6583 -3.23293,-4.08694 6.80437,-6.80437 6.80437,-6.80437 4.17505,2.97289 4.17504,2.9729 -7.0357,7.99297 c -3.86964,4.39613 -7.35555,7.95942 -7.74649,7.91841 -0.39093,-0.041 -2.1656,-1.91367 -3.94371,-4.16149 z"
           id="path78"
           inkscape:connector-curvature="0"
           transform="matrix(0.75000002,0,0,-0.75000002,0,674.52902)" /><path
           style="fill:#c4c8b7;fill-opacity:1;stroke-width:1.34735608"
           d="m 164.21045,346.47356 -7.32352,-7.41564 3.65677,-3.65676 3.65677,-3.65677 6.74687,6.64542 c 3.71077,3.65498 6.72506,6.97137 6.69841,7.36975 -0.0266,0.39838 -1.4127,2.39052 -3.08011,4.42698 l -3.03166,3.70266 z"
           id="path80"
           inkscape:connector-curvature="0"
           transform="matrix(0.75000002,0,0,-0.75000002,0,674.52902)" /><path
           style="fill:#e2e3db;fill-opacity:1;stroke-width:0.67367804"
           d="m 269.17656,372.95982 v -14.48408 h 32.67338 32.67339 v 14.48408 14.48408 h -32.67339 -32.67338 z"
           id="path82"
           inkscape:connector-curvature="0"
           transform="matrix(0.75000002,0,0,-0.75000002,0,674.52902)" /><path
           style="fill:#e2e3db;fill-opacity:1;stroke-width:0.67367804"
           d="m 252.33461,422.13831 v -14.48407 h 49.85217 49.85218 v 14.48407 14.48408 h -49.85218 -49.85217 z"
           id="path84"
           inkscape:connector-curvature="0"
           transform="matrix(0.75000002,0,0,-0.75000002,0,674.52902)" /><path
           style="fill:#e2e3db;fill-opacity:1;stroke-width:0.67367804"
           d="m 252.33461,463.23267 v -5.72626 h 49.85217 49.85218 v 5.72626 5.72627 h -49.85218 -49.85217 z"
           id="path86"
           inkscape:connector-curvature="0"
           transform="matrix(0.75000002,0,0,-0.75000002,0,674.52902)" /><path
           style="fill:#803300;fill-opacity:1;stroke-width:0.67367804"
           d="m 225.38749,513.75852 v -23.91556 h 76.46245 76.46246 v 23.91556 23.91557 h -76.46246 -76.46245 z"
           id="path88"
           inkscape:connector-curvature="0"
           transform="matrix(0.75000002,0,0,-0.75000002,0,674.52902)" /><path
           style="fill:#0066ff;fill-opacity:1;stroke-width:1.34735608"
           d="m 272.1647,595.78757 c -27.04961,-5.74977 -50.36492,-18.31214 -70.14936,-37.79668 -25.73483,-25.34473 -39.29613,-53.20469 -43.26281,-88.87793 -2.89936,-26.07463 1.67613,-51.54102 13.72024,-76.36453 24.28678,-50.05625 74.01319,-81.32369 129.33376,-81.32369 36.81125,0 70.32799,13.37315 99.34776,39.63967 15.98378,14.46733 33.30997,43.25093 39.3591,65.3864 13.26813,48.5518 0.14874,100.79631 -34.54741,137.57605 -20.36355,21.58644 -48.03521,36.74872 -77.14574,42.2709 -15.15144,2.87418 -41.86565,2.63361 -56.65554,-0.51019 z m 118.20768,-39.50368 c 7.99279,-4.36818 8.44379,-6.68531 8.44379,-43.38231 v -33.09691 l -4.52049,-4.93269 c -4.07532,-4.44695 -5.3358,-4.99169 -12.79988,-5.53159 l -8.2794,-0.59887 -0.15281,-8.25904 c -0.084,-4.54247 -0.23563,-20.38524 -0.33684,-35.20615 -0.17628,-25.81174 -0.31461,-27.1302 -3.28325,-31.29222 -1.91255,-2.68138 -5.09999,-4.94455 -8.3246,-5.91066 l -5.22537,-1.56556 -0.43322,-19.25885 c -0.69767,-31.01565 0.19499,-30.54094 -56.33747,-29.95966 -51.70734,0.53167 -50.01789,-0.49606 -50.93054,30.98208 l -0.53484,18.44708 -3.85818,0.8474 c -2.122,0.46607 -5.72585,2.97456 -8.00856,5.57442 l -4.15038,4.72702 0.10668,24.48332 c 0.0587,13.46583 0.082,29.48538 0.0519,35.59901 l -0.0548,11.11569 -7.07362,0.005 c -8.39743,0.005 -14.70297,3.336 -17.85361,9.42866 -1.83563,3.54972 -2.09353,9.01677 -1.74961,37.08843 l 0.4034,32.92463 4.20196,4.1995 c 2.31107,2.30972 6.25209,4.69464 8.75781,5.29984 2.50572,0.60519 41.23762,0.99963 86.07089,0.87653 75.13605,-0.20629 81.85594,-0.41011 85.87114,-2.60449 z"
           id="path90"
           inkscape:connector-curvature="0"
           transform="matrix(0.75000002,0,0,-0.75000002,0,674.52902)" /><path
           style="fill:#0066ff;fill-opacity:1"
           d="M 113.17669,429.99207 V 199.59419 H 306.52228 499.86787 V 429.99207 660.38995 H 306.52228 113.17669 Z m 213.34197,187.96272 c 69.53223,-10.48047 125.48177,-65.21326 137.57967,-134.58771 2.67098,-15.31654 2.67098,-41.58131 0,-56.89785 -2.54998,-14.62264 -8.33163,-32.22427 -14.81107,-45.09069 l -4.85662,-9.64399 13.39463,-13.64979 c 7.36706,-7.50739 13.83237,-15.05869 14.36738,-16.78068 1.5161,-4.87975 -1.39234,-9.9114 -10.2213,-17.68296 l -8.13094,-7.15716 5.4981,-5.60216 c 8.06092,-8.21348 7.72674,-12.85807 -1.57552,-21.89738 -28.48071,-27.67566 -69.65391,-48.5287 -113.17063,-57.31765 -12.99634,-2.62483 -19.21131,-3.0539 -43.45951,-3.00032 -29.63828,0.0655 -41.4313,1.64657 -65.72079,8.81111 -30.68793,9.05185 -64.4787,28.31754 -88.2215,50.29919 -10.69878,9.90518 -11.22587,13.94101 -2.98794,22.87812 l 5.42617,5.88669 -7.9244,7.21992 c -13.5199,12.31798 -13.67901,14.78995 -1.76555,27.43026 4.1906,4.44628 10.23858,10.88424 13.43994,14.30658 l 5.82067,6.22244 -4.65281,9.27215 c -19.97205,39.80048 -22.85828,88.50673 -7.70513,130.02733 27.01965,74.03561 101.99236,118.66384 179.67715,106.95455 z"
           id="path92"
           inkscape:connector-curvature="0"
           transform="matrix(0.75000002,0,0,-0.75000002,0,674.52902)" /><path
           style="fill:#0000ff;fill-opacity:1;stroke-width:1.34735608"
           d="m 122.60818,178.58061 c 0,-0.44178 7.61548,-13.48007 16.92328,-28.97398 l 16.92328,-28.17073 150.38046,0.34266 150.38047,0.34266 14.25996,23.57873 c 7.84298,12.9683 15.67025,25.85239 17.39392,28.63131 l 3.13396,5.05259 H 307.30585 c -101.58372,0 -184.69767,-0.36146 -184.69767,-0.80324 z"
           id="path94"
           inkscape:connector-curvature="0"
           transform="matrix(0.75000002,0,0,-0.75000002,0,674.52902)" /><path
           style="fill:#0000ff;fill-opacity:1;stroke-width:1.34735608"
           d="M 113.17669,429.99207 V 199.59419 H 306.52228 499.86787 V 429.99207 660.38995 H 306.52228 113.17669 Z m 227.02949,185.43388 c 48.01151,-12.02282 87.00378,-43.1335 109.137,-87.07689 11.07094,-21.98032 15.40502,-39.23171 16.41711,-65.34677 1.2159,-31.37372 -2.90506,-52.76464 -15.15484,-78.66515 l -5.98038,-12.64472 14.14783,-14.6439 c 8.58501,-8.88602 14.14785,-15.72793 14.14785,-17.40087 0,-4.75827 -3.71066,-10.21578 -11.4296,-16.81028 l -7.45659,-6.37036 5.40103,-5.85942 c 8.36282,-9.07259 7.74011,-12.39964 -4.53826,-24.24777 -18.32755,-17.68534 -49.67687,-36.27507 -77.7448,-46.10163 -6.35715,-2.22564 -18.78651,-5.72679 -27.6208,-7.78035 -14.90385,-3.46445 -18.20022,-3.73829 -45.70416,-3.79676 -33.26969,-0.0707 -43.41013,1.16292 -66.18084,8.05134 -27.46304,8.30791 -51.95554,20.69997 -74.54465,37.71612 -7.12435,5.36669 -15.51212,12.53355 -18.6395,15.92635 -7.53535,8.1749 -7.58613,12.31202 -0.2488,20.27208 l 5.43733,5.89881 -8.00735,6.96458 c -8.77505,7.63231 -11.6746,12.6719 -9.95905,17.30946 0.60542,1.63659 7.01531,9.30937 14.2442,17.0506 l 13.14344,14.07498 -5.27218,10.4972 c -18.30667,36.44952 -21.63973,83.67814 -8.7281,123.67509 17.00188,52.66751 61.91388,94.91665 115.42194,108.57846 17.26544,4.40825 24.71822,5.15563 46.02827,4.61577 15.81937,-0.40075 23.13766,-1.24503 33.6839,-3.88597 z"
           id="path96"
           inkscape:connector-curvature="0"
           transform="matrix(0.75000002,0,0,-0.75000002,0,674.52902)" /></g></g></g></svg>