<?xml version="1.0" encoding="iso-8859-1"?>
<!-- Generator: Adobe Illustrator 19.0.0, SVG Export Plug-In . SVG Version: 6.00 Build 0)  -->
<svg version="1.1" id="Layer_1" xmlns="http://www.w3.org/2000/svg" xmlns:xlink="http://www.w3.org/1999/xlink" x="0px" y="0px"
	 viewBox="0 0 511.999 511.999" style="enable-background:new 0 0 511.999 511.999;" xml:space="preserve">
<path style="fill:#FFB74D;" d="M225.526,345.664v135.861c0,16.83,13.644,30.474,30.474,30.474l0,0
	c16.83,0,30.474-13.644,30.474-30.474V345.664H225.526z"/>
<rect x="225.523" y="345.661" style="opacity:0.1;enable-background:new    ;" width="60.95" height="66.194"/>
<path style="fill:#EF495B;" d="M256,0L256,0c-72.339,0-130.982,58.642-130.982,130.982v206.247
	c0,24.145,19.573,43.718,43.718,43.718h174.526c24.145,0,43.718-19.574,43.718-43.718V130.982C386.982,58.642,328.339,0,256,0z"/>
<g>
	<path style="fill:#FF737C;" d="M208.234,62.113L208.234,62.113c-9.549,0-17.291,7.741-17.291,17.291v247.594
		c0,9.549,7.741,17.291,17.291,17.291l0,0c9.549,0,17.291-7.741,17.291-17.291V79.405C225.526,69.854,217.784,62.113,208.234,62.113
		z"/>
	<path style="fill:#FF737C;" d="M303.766,62.113L303.766,62.113c9.549,0,17.291,7.741,17.291,17.291v247.594
		c0,9.549-7.741,17.291-17.291,17.291l0,0c-9.549,0-17.291-7.741-17.291-17.291V79.405
		C286.474,69.854,294.216,62.113,303.766,62.113z"/>
</g>
<g>
</g>
<g>
</g>
<g>
</g>
<g>
</g>
<g>
</g>
<g>
</g>
<g>
</g>
<g>
</g>
<g>
</g>
<g>
</g>
<g>
</g>
<g>
</g>
<g>
</g>
<g>
</g>
<g>
</g>
</svg>
